<?xml version="1.0" standalone="no"?>
<!DOCTYPE svg PUBLIC "-//W3C//DTD SVG 1.1//EN" "http://www.w3.org/Graphics/SVG/1.1/DTD/svg11.dtd" >
<svg xmlns="http://www.w3.org/2000/svg">
<metadata>Generated by IcoMoon</metadata>
<defs>
<font id="icomoon" horiz-adv-x="1024">
<font-face units-per-em="1024" ascent="960" descent="-64" />
<missing-glyph horiz-adv-x="1024" />
<glyph unicode="&#x20;" horiz-adv-x="512" d="" />
<glyph unicode="&#xe900;" glyph-name="bars" d="M85.333 714.667c0 29.5 23.833 53.333 53.333 53.333h640c29.5 0 53.333-23.833 53.333-53.333s-23.834-53.333-53.333-53.333h-640c-29.5 0-53.333 23.833-53.333 53.333zM192 448c0 29.5 23.833 53.333 53.333 53.333h640c29.5 0 53.333-23.834 53.333-53.333s-23.834-53.333-53.333-53.333h-640c-29.5 0-53.333 23.834-53.333 53.333zM832 181.333c0-29.5-23.834-53.333-53.333-53.333h-640c-29.5 0-53.333 23.834-53.333 53.333s23.833 53.333 53.333 53.333h640c29.5 0 53.333-23.834 53.333-53.333z" />
<glyph unicode="&#xe901;" glyph-name="bell" d="M565.333 821.333v-32c121.668-24.717 213.333-132.333 213.333-261.333v-31.334c0-78.498 28.834-154.001 80.832-212.668l12.335-13.833c13.999-15.834 17.498-38.165 8.832-57.331s-27.665-31.501-48.666-31.501h-640c-21 0-40.048 12.335-48.652 31.501s-5.162 41.498 8.791 57.331l12.36 13.833c52.067 58.667 80.833 134.17 80.833 212.668v31.334c0 129 90.167 236.617 213.334 261.333v32c0 29.45 23.834 53.333 53.333 53.333s53.333-23.884 53.333-53.333zM512 21.333c-28.335 0-55.501 11.166-75.499 31.168-20.002 19.998-31.168 48.666-31.168 75.499h213.334c0-26.833-11.166-55.501-31.168-75.499-19.998-20.002-48.666-31.168-75.499-31.168z" />
<glyph unicode="&#xe902;" glyph-name="box" d="M181.905 824.19l-96.571-193.333h396.19v243.81h-217.713c-34.667 0-66.286-19.619-81.905-50.476zM542.477 630.857h396.19l-96.572 193.333c-15.62 30.857-47.236 50.476-81.903 50.476h-217.715v-243.81zM938.667 569.905h-853.333v-426.668c0-67.238 54.667-121.903 121.905-121.903h609.526c67.238 0 121.903 54.665 121.903 121.903v426.668z" />
<glyph unicode="&#xe903;" glyph-name="cart" d="M445.483 823.282c17.481-9.037 24.145-30.519 15.108-48l-120.887-232.445h344.593l-120.887 232.445c-9.037 17.481-2.223 38.963 15.108 48 17.335 9.037 38.818 2.222 48-15.111l137.929-265.333h126.814c26.223 0 47.407-21.186 47.407-47.409 0-26.219-21.184-47.407-47.407-47.407l-76.89-307.405c-10.517-42.223-48.444-71.855-91.998-71.855h-420.743c-43.555 0-81.481 29.632-92 71.855l-76.889 307.405c-26.222 0-47.407 21.188-47.407 47.407 0 26.223 21.185 47.409 47.407 47.409h126.815l137.926 265.333c9.037 17.481 30.521 24.148 48.001 15.111zM298.667 388.762c19.704 0 35.555 15.855 35.555 35.558s-15.852 35.554-35.555 35.554c-19.704 0-35.555-15.851-35.555-35.554s15.852-35.558 35.555-35.558zM760.887 424.32c0 19.703-15.851 35.554-35.554 35.554s-35.554-15.851-35.554-35.554c0-19.703 15.851-35.558 35.554-35.558s35.554 15.855 35.554 35.558z" />
<glyph unicode="&#xe904;" glyph-name="compass" d="M512 21.333c235.665 0 426.667 191.002 426.667 426.667 0 235.667-191.002 426.667-426.667 426.667-235.667 0-426.667-191-426.667-426.667 0-235.665 191-426.667 426.667-426.667zM298.667 234.667l106.667 320 320 106.667-106.667-320-320-106.667z" />
<glyph unicode="&#xe905;" glyph-name="dot-active" d="M716.8 448c0-113.108-91.692-204.8-204.8-204.8s-204.8 91.692-204.8 204.8c0 113.108 91.692 204.8 204.8 204.8s204.8-91.692 204.8-204.8z" />
<glyph unicode="&#xe906;" glyph-name="dot-deactive" d="M665.6 448c0-84.831-68.769-153.6-153.6-153.6s-153.6 68.769-153.6 153.6c0 84.831 68.769 153.6 153.6 153.6s153.6-68.769 153.6-153.6z" />
<glyph unicode="&#xe907;" glyph-name="down" d="M670.332 529.668l-158.332-158.502-159.833 158.502c-15.625 15.623-40.934 15.623-56.567 0-15.633-15.625-15.625-40.934 0-56.567l186.666-186.667c9.233-7.936 19.401-11.767 29.734-11.767s20.467 3.908 28.284 11.716l186.667 186.667c15.625 15.629 15.625 40.934 0 56.567-15.625 15.635-40.951 15.549-56.619 0.051zM512 874.667c-235.667 0-426.667-191-426.667-426.667 0-235.665 191-426.667 426.667-426.667 235.665 0 426.667 191.002 426.667 426.667 0 235.667-191.002 426.667-426.667 426.667zM512 101.333c-191.167 0-346.667 155.516-346.667 346.667s155.5 346.667 346.667 346.667c191.168 0 346.667-155.517 346.667-346.667s-155.499-346.667-346.667-346.667z" />
<glyph unicode="&#xe908;" glyph-name="feed-1" d="M207.238 874.667c-67.238 0-121.905-54.667-121.905-121.905v-609.526c0-67.238 54.667-121.903 121.905-121.903h609.526c67.238 0 121.903 54.665 121.903 121.903v609.526c0 67.238-54.665 121.905-121.903 121.905h-609.526zM268.19 676.571c0 25.333 20.381 45.714 45.714 45.714 260.952 0 472.382-211.429 472.382-472.383 0-25.331-20.382-45.713-45.717-45.713-25.331 0-45.713 20.382-45.713 45.713 0 210.479-170.475 380.954-380.952 380.954-25.333 0-45.714 20.381-45.714 45.714zM268.19 493.713c0 25.335 20.381 45.716 45.714 45.716 159.811 0 289.526-129.713 289.526-289.526 0-25.331-20.382-45.713-45.717-45.713-25.331 0-45.713 20.382-45.713 45.713 0 109.333-88.762 198.097-198.095 198.097-25.333 0-45.714 20.382-45.714 45.713zM390.095 265.143c0-33.715-27.238-60.954-60.952-60.954s-60.953 27.238-60.953 60.954c0 33.715 27.238 60.954 60.953 60.954s60.952-27.238 60.952-60.954z" />
<glyph unicode="&#xe909;" glyph-name="gear" d="M911.872 596.946c5.333-14.503 0.832-30.673-10.671-41.008l-72.179-65.681c1.835-13.837 2.833-28.006 2.833-42.342s-0.998-28.506-2.833-42.338l72.179-65.681c11.503-10.334 16.004-26.505 10.671-41.007-7.334-19.84-16.171-38.844-26.338-57.178l-7.838-13.504c-10.999-18.338-23.334-35.674-36.838-52.011-9.835-12.002-26.172-16.004-40.841-11.337l-92.851 29.508c-22.34-17.169-47.010-31.505-73.348-42.342l-20.838-95.185c-3.332-15.168-15.002-27.17-30.34-29.675-23.002-3.831-46.673-5.833-70.848-5.833-24.171 0-47.842 2.001-70.844 5.833-15.338 2.505-27.007 14.507-30.341 29.675l-20.838 95.185c-26.338 10.837-51.010 25.173-73.347 42.342l-92.685-29.675c-14.67-4.668-31.006-0.499-40.841 11.337-13.503 16.337-25.839 33.673-36.841 52.011l-7.835 13.504c-10.169 18.334-19.004 37.338-26.339 57.178-5.334 14.502-0.833 30.673 10.669 41.007l72.181 65.681c-1.834 13.999-2.834 28.169-2.834 42.505s1 28.506 2.834 42.342l-72.181 65.681c-11.502 10.336-16.003 26.505-10.669 41.008 7.335 19.837 16.17 38.841 26.339 57.178l7.835 13.503c11.002 18.337 23.338 35.674 36.841 52.010 9.835 12.002 26.172 16.003 40.841 11.335l92.852-29.506c22.338 17.17 47.009 31.506 73.347 42.342l20.838 95.185c3.334 15.17 15.003 27.172 30.341 29.673 23.002 4.001 46.673 6.001 70.844 6.001 24.175 0 47.846-2 70.848-5.835 15.339-2.5 27.008-14.503 30.34-29.672l20.838-95.185c26.338-10.835 51.008-25.172 73.348-42.342l92.851 29.506c14.669 4.668 31.006 0.5 40.841-11.336 13.504-16.336 25.839-33.673 36.838-52.010l7.838-13.503c10.167-18.337 19.004-37.341 26.338-57.178l-0.166-0.166zM511.957 314.556c73.681 0 133.363 59.678 133.363 133.359s-59.682 133.361-133.363 133.361c-73.681 0-133.358-59.68-133.358-133.361s59.677-133.359 133.358-133.359z" />
<glyph unicode="&#xe90a;" glyph-name="headset" d="M512 794.667c-191.5 0-346.667-155.167-346.667-346.667v-66.667c0-22.165-17.833-40-40-40s-40 17.835-40 40v66.667c0 235.667 191 426.667 426.667 426.667 235.665 0 426.667-191 426.667-426.667v-240.166c0-80.998-65.668-146.667-146.833-146.667l-183.834 0.166c-13.833-23.834-39.667-40-69.333-40h-53.333c-44.169 0-80 35.831-80 80s35.831 80 80 80h53.333c29.666 0 55.501-16.166 69.333-40l184-0.166c36.834 0 66.667 29.833 66.667 66.667v240.166c0 191.5-155.166 346.667-346.667 346.667zM325.333 528h26.667c29.5 0 53.333-23.834 53.333-53.333v-186.667c0-29.5-23.833-53.333-53.333-53.333h-26.667c-58.833 0-106.667 47.834-106.667 106.667v80c0 58.833 47.833 106.667 106.667 106.667zM698.667 528c58.833 0 106.667-47.834 106.667-106.667v-80c0-58.833-47.834-106.667-106.667-106.667h-26.667c-29.5 0-53.333 23.834-53.333 53.333v186.667c0 29.5 23.834 53.333 53.333 53.333h26.667zM512 794.667c-191.5 0-346.667-155.167-346.667-346.667v-66.667c0-22.165-17.833-40-40-40s-40 17.835-40 40v66.667c0 235.667 191 426.667 426.667 426.667 235.665 0 426.667-191 426.667-426.667v-240.166c0-80.998-65.668-146.667-146.833-146.667l-183.834 0.166c-13.833-23.834-39.667-40-69.333-40h-53.333c-44.169 0-80 35.831-80 80s35.831 80 80 80h53.333c29.666 0 55.501-16.166 69.333-40l184-0.166c36.834 0 66.667 29.833 66.667 66.667v240.166c0 191.5-155.166 346.667-346.667 346.667z" />
<glyph unicode="&#xe90b;" glyph-name="house" d="M85.333 503.718c0 24.038 9.972 46.833 27.779 63.037l341.027 259.448c32.764 29.916 82.803 29.916 115.567 0l341.18-259.447c17.63-16.204 27.78-38.995 27.78-63.038l-84.762-399.292c-17.587-37.99-38.285-56.981-85.47-56.981h-513.022c-47.189 0-64.898 0-85.474 56.981l-84.605 399.292zM426.36 313.361v-113.963c0-23.684 19.055-37.99 42.739-37.99h85.47c23.684 0 42.739 14.306 42.739 37.99v113.963c0 23.684-19.055 37.99-42.739 37.99h-85.47c-23.684 0-42.739-14.306-42.739-37.99z" />
<glyph unicode="&#xe90c;" glyph-name="layer-plus" d="M805.367 874.667c-22.165 0-40-17.834-40-40.002v-53.336h-53.338c-22.165 0-40-17.834-40-40.002s17.835-40.002 40-40.002h53.338v-53.336c0-22.168 17.835-40.002 40-40.002 22.17 0 40.004 17.834 40.004 40.002v53.336h53.333c22.17 0 40.004 17.834 40.004 40.002s-17.835 40.002-40.004 40.002h-53.333v53.336c0 22.168-17.835 40.002-40.004 40.002zM551.189 652.656c-24.836 11.5-53.504 11.5-78.336 0l-364.352-168.342c-14.167-6.498-23.168-20.668-23.168-36.335s9.001-29.833 23.168-36.335l364.352-168.341c24.832-11.499 53.5-11.499 78.336 0l364.352 168.341c14.165 6.502 23.168 20.668 23.168 36.335s-9.003 29.837-23.168 36.335l-364.352 168.342zM573.525 194.799c-39.002-18.001-84.006-18.001-123.008 0l-253.345 117.005-88.671-40.832c-14.167-6.502-23.168-20.668-23.168-36.335s9.001-29.837 23.168-36.335l364.352-168.341c24.832-11.503 53.5-11.503 78.336 0l364.352 168.341c14.165 6.498 23.168 20.668 23.168 36.335s-9.003 29.833-23.168 36.335l-88.67 41.003-253.346-117.175z" />
<glyph unicode="&#xe90d;" glyph-name="cart-plus-solid" d="M85.335 796c0 19.95 15.987 36 35.859 36h67.984c32.871 0 62.007-19.2 75.604-48h614.097c39.296 0 67.983-37.5 57.672-75.6l-61.256-228.45c-12.703-47.1-55.286-79.95-103.844-79.95h-431.065l8.068-42.752c3.288-16.947 18.079-29.251 35.262-29.251h430.763c19.876 0 35.86-16.046 35.86-35.999 0-19.948-15.985-35.999-35.86-35.999h-430.763c-51.698 0-96.074 36.9-105.636 87.752l-77.098 406.498c-1.046 5.7-5.977 9.75-11.804 9.75h-67.984c-19.872 0-35.859 16.050-35.859 36zM276.586 135.997c0 9.457 1.855 18.821 5.459 27.556s8.887 16.671 15.547 23.357c6.66 6.687 14.566 11.991 23.267 15.611 8.701 3.615 18.028 5.478 27.446 5.478s18.745-1.864 27.446-5.478c8.701-3.62 16.607-8.924 23.267-15.611s11.942-14.623 15.547-23.357c3.604-8.735 5.459-18.099 5.459-27.556 0-9.452-1.855-18.816-5.459-27.551s-8.887-16.671-15.547-23.357c-6.66-6.687-14.566-11.991-23.267-15.611-8.701-3.615-18.028-5.478-27.446-5.478s-18.744 1.864-27.446 5.478c-8.701 3.62-16.607 8.924-23.267 15.611s-11.942 14.623-15.547 23.357c-3.604 8.735-5.459 18.099-5.459 27.551zM778.619 208c19.021 0 37.263-7.588 50.714-21.089s21.007-31.816 21.007-50.913c0-19.092-7.557-37.407-21.007-50.908s-31.693-21.089-50.714-21.089c-19.021 0-37.263 7.588-50.714 21.089-13.445 13.501-21.002 31.816-21.002 50.908 0 19.098 7.557 37.412 21.002 50.913 13.45 13.501 31.693 21.089 50.714 21.089zM461.861 592c0-16.5 13.447-30 29.883-30h65.742v-66c0-16.5 13.45-30 29.885-30s29.88 13.5 29.88 30v66h65.746c16.435 0 29.88 13.5 29.88 30s-13.445 30-29.88 30h-65.746v66c0 16.5-13.445 30-29.88 30s-29.885-13.5-29.885-30v-66h-65.742c-16.436 0-29.883-13.5-29.883-30z" />
<glyph unicode="&#xe90e;" glyph-name="microphone" d="M351.787 714.667v-266.667c0-88.333 71.666-160 160-160s160 71.667 160 160h-133.333c-14.669 0-26.667 11.998-26.667 26.667s11.998 26.667 26.667 26.667h133.333v53.333h-133.333c-14.669 0-26.667 12-26.667 26.667s11.998 26.667 26.667 26.667h133.333v53.333h-133.333c-14.669 0-26.667 12-26.667 26.667s11.998 26.667 26.667 26.667h133.333c0 88.333-71.667 160-160 160s-160-71.667-160-160zM725.12 474.667v-26.667c0-117.833-95.501-213.333-213.333-213.333s-213.333 95.501-213.333 213.333v66.667c0 22.167-17.833 40-40 40s-40-17.833-40-40v-66.667c0-148.501 110.333-271.168 253.333-290.667v-56h-80c-22.167 0-40-17.835-40-40s17.833-40 40-40h240c22.165 0 40 17.835 40 40s-17.835 40-40 40h-80v56c143.002 19.499 253.333 142.165 253.333 290.667v66.667c0 22.167-17.835 40-40 40s-40-17.833-40-40v-40z" />
<glyph unicode="&#xe90f;" glyph-name="moon" d="M572.062 874.667c-235.237 0-425.713-191.048-425.713-426.667s190.476-426.667 425.713-426.667c115.43 0 220.002 46.097 296.764 120.764 9.523 9.331 11.998 23.808 5.905 35.618-6.097 11.81-19.238 18.475-32.38 16.188-18.667-3.234-37.717-4.949-57.335-4.949-184.572 0-334.285 150.093-334.285 335.236 0 125.334 68.57 234.477 170.095 292 11.618 6.667 17.523 20 14.665 32.953-2.854 12.952-13.905 22.667-27.238 23.809-11.998 0.952-24 1.524-36.19 1.524v0.19z" />
<glyph unicode="&#xe910;" glyph-name="more" d="M511.684 242.569c61.099 0 110.618-49.583 110.618-110.618 0-61.039-49.519-110.618-110.618-110.618-61.094 0-110.617 49.579-110.617 110.618 0 61.035 49.522 110.618 110.617 110.618zM511.684 558.617c61.099 0 110.618-49.578 110.618-110.617s-49.519-110.618-110.618-110.618c-61.094 0-110.617 49.579-110.617 110.618s49.522 110.617 110.617 110.617zM511.684 653.432c-61.094 0-110.617 49.58-110.617 110.617 0 61.096 49.522 110.617 110.617 110.617 61.099 0 110.618-49.521 110.618-110.617 0-61.037-49.519-110.617-110.618-110.617z" />
<glyph unicode="&#xe911;" glyph-name="question" d="M512 21.333c235.665 0 426.667 191.002 426.667 426.667 0 235.667-191.002 426.667-426.667 426.667-235.667 0-426.667-191-426.667-426.667 0-235.665 191-426.667 426.667-426.667zM368.333 599.167c13.167 37.167 48.5 62.167 88 62.167h97.169c58.163 0 105.165-47.167 105.165-105.167 0-37.669-20.169-72.502-52.834-91.335l-53.833-30.831c-0.333-21.666-18.167-39.334-40-39.334-22.165 0-40 17.835-40 40v22.498c0 14.336 7.667 27.503 20.169 34.667l73.83 42.335c7.834 4.5 12.668 12.833 12.668 21.833 0 14-11.332 25.167-25.165 25.167h-97.169c-5.666 0-10.667-3.5-12.501-8.833l-0.666-2c-7.334-20.833-30.333-31.667-50.999-24.333s-31.667 30.333-24.334 51l0.667 2-0.167 0.167zM565.333 288c0-29.5-23.834-53.333-53.333-53.333s-53.333 23.834-53.333 53.333c0 29.5 23.834 53.333 53.333 53.333s53.333-23.834 53.333-53.333z" />
<glyph unicode="&#xe912;" glyph-name="right" d="M485.5 663c-15.625 15.625-40.934 15.625-56.567 0s-15.624-40.933 0-56.567l159.902-158.433-158.383-158.383c-15.626-15.625-15.626-40.934 0-56.567s40.93-15.625 56.567 0l186.667 186.667c7.817 7.782 11.648 17.95 11.648 28.284s-3.908 20.467-11.716 28.284l-188.117 186.716zM512 874.667c-235.667 0-426.667-191-426.667-426.667 0-235.665 191-426.667 426.667-426.667 235.665 0 426.667 191.002 426.667 426.667 0 235.667-191.002 426.667-426.667 426.667zM512 101.333c-191.167 0-346.667 155.516-346.667 346.667s155.5 346.667 346.667 346.667c191.168 0 346.667-155.517 346.667-346.667s-155.499-346.667-346.667-346.667z" />
<glyph unicode="&#xe913;" glyph-name="right-solid" d="M333.923 21.333c-18.194 0-36.398 6.946-50.263 20.834-27.776 27.772-27.776 72.772 0 100.548l305.358 305.254-305.358 305.315c-27.776 27.776-27.776 72.773 0 100.549s72.773 27.776 100.549 0l355.533-355.531c27.776-27.776 27.776-72.777 0-100.553l-355.533-355.529c-13.888-14.003-32.087-20.89-50.286-20.89z" />
<glyph unicode="&#xe914;" glyph-name="search" d="M778.564 528.051c0-76.489-24.828-147.145-66.658-204.471l210.97-211.136c20.83-20.83 20.83-54.656 0-75.486-20.83-20.834-54.656-20.834-75.486 0l-210.97 211.136c-57.327-41.997-127.983-66.658-204.471-66.658-191.471 0-346.615 155.145-346.615 346.615s155.144 346.615 346.615 346.615c191.471 0 346.615-155.144 346.615-346.615zM431.949 288.085c132.48 0 239.966 107.486 239.966 239.966s-107.486 239.965-239.966 239.965c-132.48 0-239.965-107.485-239.965-239.965s107.485-239.966 239.965-239.966z" />
<glyph unicode="&#xe915;" glyph-name="star" d="M662.357 624.133l232.196-35.329c19.23-2.833 35.388-16.831 41.527-35.995 6.14-19.331 1.131-40.326-12.766-54.658l-168.371-170.313 39.753-244.305c3.23-19.998-4.689-40.329-20.847-52.16-15.996-11.831-37.163-13.329-54.451-3.831l-207.475 114.15-207.312-114.15c-17.451-9.498-38.618-8-54.615 3.831s-24.076 32.162-20.683 52.16l39.75 244.305-168.403 170.313c-13.912 14.332-18.857 35.327-12.749 54.658 6.092 19.164 22.202 33.162 41.575 35.995l232.003 35.329 104.060 220.523c8.563 18.358 26.662 30.011 46.374 30.011 19.874 0 37.973-11.654 46.537-30.011l103.898-220.523z" />
<glyph unicode="&#xe916;" glyph-name="user-group" d="M897.229 106.667h-183.868c7.198 12.531 11.465 27.068 11.465 42.667v10.667c0 80.934-36.13 153.6-93.065 202.398 3.2 0.137 6.268 0.269 9.468 0.269h81.865c118.801 0 215.066-96.265 215.066-215.066 0-22.669-18.398-40.934-40.93-40.934zM660.826 448c-41.331 0-78.665 16.798-105.732 43.866 26.266 35.469 41.732 79.334 41.732 126.801 0 35.733-8.798 69.466-24.397 99.066 24.798 18.133 55.33 28.934 88.397 28.934 82.534 0 149.333-66.8 149.333-149.333s-66.799-149.333-149.333-149.333zM555.093 618.667c0-94.268-76.399-170.667-170.666-170.667s-170.667 76.399-170.667 170.667c0 94.266 76.4 170.667 170.667 170.667s170.666-76.4 170.666-170.667zM85.76 146.266c0 131.337 106.4 237.734 237.734 237.734h121.865c131.337 0 237.734-106.398 237.734-237.734 0-21.867-17.732-39.599-39.599-39.599h-518.134c-21.867 0-39.6 17.732-39.6 39.599z" />
</font>
</defs>
</svg>
