<svg width="741" height="874" viewBox="0 0 741 874" fill="none" xmlns="http://www.w3.org/2000/svg">
<g opacity="0.3">
<path d="M-408.218 150.545C-408.218 150.545 -178.881 108.062 -119.709 -40.6256C-63.1196 -183.159 169.991 -221.472 169.991 -221.472" stroke="white" stroke-miterlimit="10"/>
<path d="M-408.218 222.009C-408.218 222.009 -126.858 172.976 -54.3829 -6.48088C14.7162 -177.799 300.445 -221.472 300.445 -221.472" stroke="white" stroke-miterlimit="10"/>
<path d="M-408.218 293.673C-408.218 293.673 -75.0333 237.891 10.7449 28.0608C92.5519 -172.637 430.9 -221.472 430.9 -221.472" stroke="white" stroke-miterlimit="10"/>
<path d="M-408.218 365.139C-408.218 365.139 -23.0104 302.805 76.0714 62.2057C170.388 -167.277 561.354 -221.472 561.354 -221.472" stroke="white" stroke-miterlimit="10"/>
<path d="M-408.218 436.604C-408.218 436.604 29.0126 367.72 141.398 96.5482C248.223 -161.917 691.61 -221.472 691.61 -221.472" stroke="white" stroke-miterlimit="10"/>
<path d="M-408.218 508.267C-408.218 508.267 80.8368 432.832 206.526 130.891C326.257 -156.756 822.064 -221.472 822.064 -221.472" stroke="white" stroke-miterlimit="10"/>
<path d="M-408.218 579.733C-408.218 579.733 132.86 497.547 271.852 165.235C404.094 -151.397 952.517 -221.472 952.517 -221.472" stroke="white" stroke-miterlimit="10"/>
<path d="M-408.218 651.198C-408.218 651.198 184.883 562.462 336.98 199.379C481.929 -146.036 1082.97 -221.472 1082.97 -221.472" stroke="white" stroke-miterlimit="10"/>
<path d="M-408.218 722.863C-408.218 722.863 236.706 627.576 402.306 233.92C559.766 -140.876 1213.23 -221.472 1213.23 -221.472" stroke="white" stroke-miterlimit="10"/>
<path d="M-408.218 794.322C-408.218 794.322 288.73 692.49 467.435 268.264C637.601 -135.516 1343.68 -221.472 1343.68 -221.472" stroke="white" stroke-miterlimit="10"/>
<path d="M-408.218 865.986C-408.218 865.986 340.753 757.403 532.762 302.606C715.437 -130.156 1474.14 -221.472 1474.14 -221.472" stroke="white" stroke-miterlimit="10"/>
<path d="M-408.218 937.458C-408.218 937.458 392.577 822.319 597.889 336.95C793.272 -124.994 1604.59 -221.472 1604.59 -221.472" stroke="white" stroke-miterlimit="10"/>
<path d="M-408.218 1008.91C-408.218 1008.91 444.6 887.233 663.215 371.093C871.109 -119.634 1735.04 -221.472 1735.04 -221.472" stroke="white" stroke-miterlimit="10"/>
<path d="M-408.218 1080.58C-408.218 1080.58 496.623 952.147 728.542 405.635C948.944 -114.274 1865.3 -221.472 1865.3 -221.472" stroke="white" stroke-miterlimit="10"/>
<path d="M-408.218 1152.05C-408.218 1152.05 548.447 1017.06 793.67 439.78C1026.78 -109.113 1995.76 -221.472 1995.76 -221.472" stroke="white" stroke-miterlimit="10"/>
<path d="M-408.218 1223.52C-408.218 1223.52 600.471 1081.98 858.996 474.122C1104.62 -103.753 2126.21 -221.472 2126.21 -221.472" stroke="white" stroke-miterlimit="10"/>
<path d="M-408.218 1295.19C-408.218 1295.19 652.493 1147.08 924.123 508.466C1182.45 -98.3929 2256.66 -221.472 2256.66 -221.472" stroke="white" stroke-miterlimit="10"/>
<path d="M-408.218 1366.64C-408.218 1366.64 704.318 1211.81 989.45 542.809C1260.29 -93.2322 2386.92 -221.472 2386.92 -221.472" stroke="white" stroke-miterlimit="10"/>
</g>
</svg>
